<mxfile host="65bd71144e">
    <diagram id="ux8EO7gfxUK4QehuEjYd" name="Page-1">
        <mxGraphModel dx="753" dy="480" grid="1" gridSize="10" guides="1" tooltips="1" connect="1" arrows="1" fold="1" page="1" pageScale="1" pageWidth="827" pageHeight="1169" math="0" shadow="0">
            <root>
                <mxCell id="0"/>
                <mxCell id="1" parent="0"/>
                <mxCell id="5" value="&lt;p style=&quot;line-height: 120%&quot;&gt;&lt;font color=&quot;#99ff99&quot; size=&quot;1&quot;&gt;&lt;b style=&quot;font-size: 14px ; background-color: rgb(42 , 42 , 42)&quot;&gt;Header&lt;/b&gt;&lt;/font&gt;&lt;/p&gt;&lt;div style=&quot;text-align: justify&quot;&gt;&lt;/div&gt;&lt;p&gt;&lt;/p&gt;" style="whiteSpace=wrap;html=1;dashed=1;strokeColor=#99FF99;strokeWidth=2;imageAspect=1;align=left;verticalAlign=top;spacingTop=1;spacingLeft=10;fillColor=#2A2A2A;" parent="1" vertex="1">
                    <mxGeometry x="40" y="85" width="760" height="140" as="geometry"/>
                </mxCell>
                <mxCell id="9" style="edgeStyle=orthogonalEdgeStyle;html=1;exitX=0;exitY=0.5;exitDx=0;exitDy=0;entryX=0;entryY=0.5;entryDx=0;entryDy=0;endArrow=none;endFill=0;strokeColor=#1BA1E2;" parent="1" source="2" target="8" edge="1">
                    <mxGeometry relative="1" as="geometry">
                        <Array as="points">
                            <mxPoint x="20" y="45"/>
                            <mxPoint x="20" y="155"/>
                        </Array>
                    </mxGeometry>
                </mxCell>
                <mxCell id="2" value="login" style="rounded=1;whiteSpace=wrap;html=1;fillColor=#1ba1e2;fontColor=#ffffff;strokeColor=none;" parent="1" vertex="1">
                    <mxGeometry x="40" y="30" width="110" height="30" as="geometry"/>
                </mxCell>
                <mxCell id="3" value="storageService" style="rounded=1;whiteSpace=wrap;html=1;fontColor=#ffffff;fillColor=#6600CC;strokeColor=none;" parent="1" vertex="1">
                    <mxGeometry x="470" y="233" width="110" height="30" as="geometry"/>
                </mxCell>
                <mxCell id="18" style="edgeStyle=none;html=1;exitX=1;exitY=0.5;exitDx=0;exitDy=0;entryX=1;entryY=0.5;entryDx=0;entryDy=0;fontColor=#363636;strokeColor=#1BE25D;endArrow=none;endFill=0;" parent="1" source="17" target="4" edge="1">
                    <mxGeometry relative="1" as="geometry">
                        <Array as="points">
                            <mxPoint x="820" y="155"/>
                            <mxPoint x="820" y="45"/>
                        </Array>
                    </mxGeometry>
                </mxCell>
                <mxCell id="4" value="user" style="rounded=1;whiteSpace=wrap;html=1;fontColor=#ffffff;fillColor=#1BE25D;strokeColor=none;" parent="1" vertex="1">
                    <mxGeometry x="690" y="30" width="110" height="30" as="geometry"/>
                </mxCell>
                <mxCell id="13" style="edgeStyle=none;html=1;exitX=1;exitY=0.5;exitDx=0;exitDy=0;entryX=0;entryY=0.5;entryDx=0;entryDy=0;startArrow=none;strokeColor=#FFFFFF;" parent="1" source="14" target="17" edge="1">
                    <mxGeometry relative="1" as="geometry">
                        <mxPoint x="450" y="60" as="targetPoint"/>
                        <Array as="points"/>
                    </mxGeometry>
                </mxCell>
                <mxCell id="21" style="edgeStyle=none;html=1;exitX=1;exitY=0.5;exitDx=0;exitDy=0;entryX=0.5;entryY=0;entryDx=0;entryDy=0;fontColor=#1BA1E2;endArrow=classic;endFill=1;strokeColor=#FFFFFF;startArrow=classic;startFill=1;" parent="1" source="8" target="3" edge="1">
                    <mxGeometry relative="1" as="geometry">
                        <Array as="points">
                            <mxPoint x="190" y="190"/>
                            <mxPoint x="525" y="190"/>
                        </Array>
                    </mxGeometry>
                </mxCell>
                <mxCell id="8" value="&lt;span style=&quot;background-color: rgb(42 , 42 , 42)&quot;&gt;startLogin&lt;/span&gt;" style="shape=parallelogram;perimeter=parallelogramPerimeter;whiteSpace=wrap;html=1;fixedSize=1;strokeWidth=1;verticalAlign=top;strokeColor=#1BA1E2;fontColor=#1BA1E2;fillColor=#2A2A2A;" parent="1" vertex="1">
                    <mxGeometry x="60" y="140" width="120" height="30" as="geometry"/>
                </mxCell>
                <mxCell id="10" value="consultApi" style="rounded=1;whiteSpace=wrap;html=1;fontColor=#ffffff;fillColor=#CC0000;strokeColor=none;" parent="1" vertex="1">
                    <mxGeometry x="240" y="234" width="110" height="30" as="geometry"/>
                </mxCell>
                <mxCell id="43" style="edgeStyle=none;html=1;exitX=0.5;exitY=1;exitDx=0;exitDy=0;entryX=0.5;entryY=0;entryDx=0;entryDy=0;startArrow=classic;startFill=1;strokeColor=#FFFFFF;" parent="1" source="17" target="3" edge="1">
                    <mxGeometry relative="1" as="geometry">
                        <Array as="points">
                            <mxPoint x="720" y="190"/>
                            <mxPoint x="525" y="190"/>
                        </Array>
                    </mxGeometry>
                </mxCell>
                <mxCell id="17" value="&lt;span style=&quot;background-color: rgb(42 , 42 , 42)&quot;&gt;userMemory&lt;/span&gt;" style="shape=parallelogram;perimeter=parallelogramPerimeter;whiteSpace=wrap;html=1;fixedSize=1;strokeWidth=1;verticalAlign=top;strokeColor=#1BE25D;fontColor=#1BE25D;fillColor=#2A2A2A;" parent="1" vertex="1">
                    <mxGeometry x="660" y="140" width="120" height="30" as="geometry"/>
                </mxCell>
                <mxCell id="14" value="if token or &lt;br&gt;rememberUser exist" style="text;html=1;resizable=0;autosize=1;align=center;verticalAlign=middle;points=[];rounded=0;rotation=0;fillColor=#FFFFFF;fontColor=#363636;" parent="1" vertex="1">
                    <mxGeometry x="360" y="140" width="120" height="30" as="geometry"/>
                </mxCell>
                <mxCell id="20" value="" style="edgeStyle=none;html=1;exitX=1;exitY=0.5;exitDx=0;exitDy=0;entryX=0;entryY=0.5;entryDx=0;entryDy=0;endArrow=none;strokeColor=#FFFFFF;" parent="1" source="8" target="14" edge="1">
                    <mxGeometry relative="1" as="geometry">
                        <mxPoint x="170" y="185" as="sourcePoint"/>
                        <mxPoint x="670" y="185" as="targetPoint"/>
                        <Array as="points"/>
                    </mxGeometry>
                </mxCell>
                <mxCell id="22" value="Get token or rememberUser" style="text;html=1;resizable=0;autosize=1;align=center;verticalAlign=middle;points=[];fillColor=none;strokeColor=none;rounded=0;fontColor=#1BA1E2;rotation=0;" parent="1" vertex="1">
                    <mxGeometry x="199" y="173" width="160" height="20" as="geometry"/>
                </mxCell>
                <mxCell id="24" value="&lt;p style=&quot;line-height: 120%&quot;&gt;&lt;font size=&quot;1&quot; color=&quot;#ffb366&quot;&gt;&lt;b style=&quot;font-size: 14px&quot;&gt;Login Page&lt;/b&gt;&lt;/font&gt;&lt;/p&gt;&lt;div style=&quot;text-align: justify&quot;&gt;&lt;/div&gt;&lt;p&gt;&lt;/p&gt;" style="whiteSpace=wrap;html=1;dashed=1;strokeWidth=2;imageAspect=1;align=left;verticalAlign=top;spacingTop=1;spacingLeft=10;strokeColor=#FFB366;dashPattern=1 2;fillColor=#2A2A2A;" parent="1" vertex="1">
                    <mxGeometry x="40" y="280" width="760" height="190" as="geometry"/>
                </mxCell>
                <mxCell id="26" style="edgeStyle=none;html=1;exitX=0;exitY=0.5;exitDx=0;exitDy=0;entryX=0;entryY=0.5;entryDx=0;entryDy=0;fontColor=#1BA1E2;endArrow=none;endFill=0;strokeColor=#1BA1E2;" parent="1" source="25" target="2" edge="1">
                    <mxGeometry relative="1" as="geometry">
                        <Array as="points">
                            <mxPoint x="20" y="415"/>
                            <mxPoint x="20" y="45"/>
                        </Array>
                    </mxGeometry>
                </mxCell>
                <mxCell id="28" style="edgeStyle=none;html=1;exitX=0.5;exitY=0;exitDx=0;exitDy=0;entryX=0;entryY=0.5;entryDx=0;entryDy=0;fontColor=#1BA1E2;endArrow=none;endFill=0;strokeColor=#1BA1E2;" parent="1" source="25" target="27" edge="1">
                    <mxGeometry relative="1" as="geometry"/>
                </mxCell>
                <mxCell id="34" style="edgeStyle=none;html=1;exitX=1;exitY=0.5;exitDx=0;exitDy=0;entryX=0;entryY=0.5;entryDx=0;entryDy=0;fontColor=#1BA1E2;endArrow=classic;endFill=1;strokeColor=#FFFFFF;" parent="1" source="25" target="30" edge="1">
                    <mxGeometry relative="1" as="geometry"/>
                </mxCell>
                <mxCell id="25" value="&lt;span style=&quot;background-color: rgb(42 , 42 , 42)&quot;&gt;authenticate&lt;/span&gt;" style="shape=parallelogram;perimeter=parallelogramPerimeter;whiteSpace=wrap;html=1;fixedSize=1;strokeWidth=1;verticalAlign=top;strokeColor=#1BA1E2;fontColor=#1BA1E2;fillColor=#2A2A2A;" parent="1" vertex="1">
                    <mxGeometry x="60" y="400" width="120" height="30" as="geometry"/>
                </mxCell>
                <mxCell id="32" style="edgeStyle=none;html=1;exitX=0.5;exitY=1;exitDx=0;exitDy=0;entryX=1;entryY=0.5;entryDx=0;entryDy=0;fontColor=#1BA1E2;endArrow=classic;endFill=1;strokeColor=#FFFFFF;" parent="1" source="27" target="25" edge="1">
                    <mxGeometry relative="1" as="geometry"/>
                </mxCell>
                <mxCell id="35" style="edgeStyle=none;html=1;exitX=0.5;exitY=0;exitDx=0;exitDy=0;entryX=0.5;entryY=1;entryDx=0;entryDy=0;fontColor=#1BA1E2;endArrow=classic;endFill=1;strokeColor=#FFFFFF;startArrow=classic;startFill=1;" parent="1" source="27" target="10" edge="1">
                    <mxGeometry relative="1" as="geometry">
                        <Array as="points"/>
                    </mxGeometry>
                </mxCell>
                <mxCell id="45" style="edgeStyle=none;html=1;exitX=0.5;exitY=0;exitDx=0;exitDy=0;entryX=0;entryY=0.5;entryDx=0;entryDy=0;startArrow=none;startFill=0;strokeColor=#FFFFFF;" parent="1" source="27" target="3" edge="1">
                    <mxGeometry relative="1" as="geometry">
                        <Array as="points">
                            <mxPoint x="260" y="300"/>
                            <mxPoint x="200" y="300"/>
                            <mxPoint x="200" y="220"/>
                            <mxPoint x="370" y="220"/>
                        </Array>
                    </mxGeometry>
                </mxCell>
                <mxCell id="27" value="&lt;span style=&quot;background-color: rgb(42 , 42 , 42)&quot;&gt;fetchApiToken&lt;/span&gt;" style="shape=parallelogram;perimeter=parallelogramPerimeter;whiteSpace=wrap;html=1;fixedSize=1;strokeWidth=1;verticalAlign=top;strokeColor=#1BA1E2;fontColor=#1BA1E2;fillColor=#2A2A2A;" parent="1" vertex="1">
                    <mxGeometry x="230" y="330" width="120" height="30" as="geometry"/>
                </mxCell>
                <mxCell id="31" style="edgeStyle=none;html=1;exitX=1;exitY=0.5;exitDx=0;exitDy=0;entryX=1;entryY=0.5;entryDx=0;entryDy=0;fontColor=#1BA1E2;endArrow=none;endFill=0;strokeColor=#1BE25D;" parent="1" source="30" target="4" edge="1">
                    <mxGeometry relative="1" as="geometry">
                        <Array as="points">
                            <mxPoint x="820" y="415"/>
                            <mxPoint x="820" y="45"/>
                        </Array>
                    </mxGeometry>
                </mxCell>
                <mxCell id="47" style="edgeStyle=none;html=1;exitX=0.5;exitY=0;exitDx=0;exitDy=0;entryX=1;entryY=0.5;entryDx=0;entryDy=0;startArrow=none;startFill=0;strokeColor=#FFFFFF;" parent="1" source="30" target="3" edge="1">
                    <mxGeometry relative="1" as="geometry">
                        <Array as="points">
                            <mxPoint x="760" y="360"/>
                            <mxPoint x="760" y="248"/>
                        </Array>
                    </mxGeometry>
                </mxCell>
                <mxCell id="30" value="&lt;span style=&quot;background-color: rgb(42 , 42 , 42)&quot;&gt;authenticate&lt;/span&gt;" style="shape=parallelogram;perimeter=parallelogramPerimeter;whiteSpace=wrap;html=1;fixedSize=1;strokeWidth=1;verticalAlign=top;strokeColor=#1BE25D;fontColor=#1BE25D;fillColor=#2A2A2A;" parent="1" vertex="1">
                    <mxGeometry x="660" y="400" width="120" height="30" as="geometry"/>
                </mxCell>
                <mxCell id="33" value="&lt;font color=&quot;#ffffff&quot; style=&quot;background-color: rgb(42 , 42 , 42)&quot;&gt;return&lt;br&gt;token&lt;/font&gt;" style="text;html=1;resizable=0;autosize=1;align=center;verticalAlign=middle;points=[];strokeColor=none;rounded=0;dashed=1;dashPattern=1 2;fontColor=#1BA1E2;fillColor=#2a2a2a;" parent="1" vertex="1">
                    <mxGeometry x="300" y="290" width="50" height="30" as="geometry"/>
                </mxCell>
                <mxCell id="39" style="edgeStyle=none;html=1;exitX=0.5;exitY=1;exitDx=0;exitDy=0;entryX=0;entryY=0.25;entryDx=0;entryDy=0;fontColor=#1BA1E2;startArrow=none;startFill=0;endArrow=none;endFill=0;strokeColor=#1BE25D;" parent="1" source="38" target="30" edge="1">
                    <mxGeometry relative="1" as="geometry"/>
                </mxCell>
                <mxCell id="40" style="edgeStyle=none;html=1;exitX=0;exitY=0.5;exitDx=0;exitDy=0;entryX=1;entryY=0.5;entryDx=0;entryDy=0;fontColor=#1BA1E2;startArrow=classic;startFill=1;endArrow=classic;endFill=1;strokeColor=#FFFFFF;" parent="1" source="38" target="10" edge="1">
                    <mxGeometry relative="1" as="geometry"/>
                </mxCell>
                <mxCell id="42" style="edgeStyle=none;html=1;exitX=1;exitY=0.5;exitDx=0;exitDy=0;entryX=0.5;entryY=0;entryDx=0;entryDy=0;fontColor=#1BA1E2;startArrow=none;startFill=0;endArrow=classic;endFill=1;strokeColor=#FFFFFF;" parent="1" source="38" target="30" edge="1">
                    <mxGeometry relative="1" as="geometry"/>
                </mxCell>
                <mxCell id="38" value="&lt;span style=&quot;background-color: rgb(42 , 42 , 42)&quot;&gt;fetchPersonalInformations&lt;/span&gt;" style="shape=parallelogram;perimeter=parallelogramPerimeter;whiteSpace=wrap;html=1;fixedSize=1;strokeWidth=1;verticalAlign=top;strokeColor=#1BE25D;fontColor=#1BE25D;fillColor=#2A2A2A;" parent="1" vertex="1">
                    <mxGeometry x="530" y="330" width="190" height="30" as="geometry"/>
                </mxCell>
                <mxCell id="41" value="&lt;font color=&quot;#ffffff&quot; style=&quot;background-color: rgb(42 , 42 , 42)&quot;&gt;return&amp;nbsp;user information&lt;/font&gt;" style="text;html=1;resizable=0;autosize=1;align=center;verticalAlign=middle;points=[];strokeColor=none;rounded=0;dashed=1;dashPattern=1 2;fontColor=#1BA1E2;fillColor=#2a2a2a;" parent="1" vertex="1">
                    <mxGeometry x="480" y="290" width="140" height="20" as="geometry"/>
                </mxCell>
                <mxCell id="44" value="&lt;font color=&quot;#1be25d&quot;&gt;Get user information&lt;/font&gt;" style="text;html=1;resizable=0;autosize=1;align=center;verticalAlign=middle;points=[];fillColor=none;strokeColor=none;rounded=0;fontColor=#1BA1E2;rotation=0;" parent="1" vertex="1">
                    <mxGeometry x="570" y="173" width="120" height="20" as="geometry"/>
                </mxCell>
                <mxCell id="46" value="Save token &amp;amp; rememberUser" style="text;html=1;resizable=0;autosize=1;align=center;verticalAlign=middle;points=[];fillColor=none;strokeColor=none;rounded=0;fontColor=#1BA1E2;rotation=0;" parent="1" vertex="1">
                    <mxGeometry x="205" y="201" width="170" height="20" as="geometry"/>
                </mxCell>
                <mxCell id="48" value="&lt;font color=&quot;#1be25d&quot;&gt;Save user information&lt;/font&gt;" style="text;html=1;resizable=0;autosize=1;align=center;verticalAlign=middle;points=[];fillColor=none;strokeColor=none;rounded=0;fontColor=#1BA1E2;rotation=0;" parent="1" vertex="1">
                    <mxGeometry x="605" y="226" width="130" height="20" as="geometry"/>
                </mxCell>
            </root>
        </mxGraphModel>
    </diagram>
</mxfile>